<svg xmlns="http://www.w3.org/2000/svg" viewBox="0 0 32 32" width="32" height="32">
  <defs>
    <linearGradient id="avatarGrad" x1="0%" y1="0%" x2="100%" y2="100%">
      <stop offset="0%" style="stop-color:#FFD4A8"/>
      <stop offset="100%" style="stop-color:#FFB067"/>
    </linearGradient>
  </defs>
  <circle cx="16" cy="16" r="16" fill="url(#avatarGrad)"/>
  <!-- Ears -->
  <path d="M7 12 L5 4 L12 10 Z" fill="#FFB067"/>
  <path d="M25 12 L27 4 L20 10 Z" fill="#FFB067"/>
  <path d="M8.5 11 L7 6 L11 10 Z" fill="#FFB5B5"/>
  <path d="M23.5 11 L25 6 L21 10 Z" fill="#FFB5B5"/>
  <!-- Face -->
  <circle cx="16" cy="15" r="9" fill="#FFB067"/>
  <ellipse cx="16" cy="17" rx="6" ry="5" fill="#FFECD2" opacity="0.5"/>
  <!-- Eyes -->
  <ellipse cx="13" cy="14" rx="2" ry="2.2" fill="#2D3748"/>
  <circle cx="13.8" cy="13.3" r="0.8" fill="white" opacity="0.8"/>
  <ellipse cx="19" cy="14" rx="2" ry="2.2" fill="#2D3748"/>
  <circle cx="19.8" cy="13.3" r="0.8" fill="white" opacity="0.8"/>
  <!-- Nose -->
  <ellipse cx="16" cy="17" rx="1.2" ry="0.8" fill="#FF9B9B"/>
  <!-- Mouth -->
  <path d="M16 17.8 Q16 19 14.5 19.5" fill="none" stroke="#E88A72" stroke-width="0.6" stroke-linecap="round"/>
  <path d="M16 17.8 Q16 19 17.5 19.5" fill="none" stroke="#E88A72" stroke-width="0.6" stroke-linecap="round"/>
  <!-- Whiskers -->
  <line x1="11" y1="16" x2="4" y2="15" stroke="#D4A57A" stroke-width="0.5" opacity="0.5"/>
  <line x1="11" y1="17.5" x2="4" y2="17.5" stroke="#D4A57A" stroke-width="0.5" opacity="0.5"/>
  <line x1="21" y1="16" x2="28" y2="15" stroke="#D4A57A" stroke-width="0.5" opacity="0.5"/>
  <line x1="21" y1="17.5" x2="28" y2="17.5" stroke="#D4A57A" stroke-width="0.5" opacity="0.5"/>
</svg>
